PathFileType	4	(X/Y/Z)	C:/Users/opensim2020/Desktop/walking_exp_matlab/subject02_walking04_straight_01.trc	
DataRate	CameraRate	NumFrames	NumMarkers	Units	OrigDataRate	OrigDataStartFrame	OrigNumFrames	
100.00	100.00	4	42	mm	100.00	764	302	
Frame#	Time	LFHD			RFHD			LBHD			RBHD			C7			T10			CLAV			STRN			RBAK			LSHO			LUPA			LELB			LFRM			LWRA			LWRB			LFIN			RSHO			RUPA			RELB			RFRM			RWRA			RWRB			RFIN			LASI			RASI			LPSI			RPSI			LTHI			LKNE			LTIB			LANK			LHEE			LTOE			RTHI			RKNE			RTIB			RANK			RHEE			RTOE			*39			*40			*41			
		X1	Y1	Z1	X2	Y2	Z2	X3	Y3	Z3	X4	Y4	Z4	X5	Y5	Z5	X6	Y6	Z6	X7	Y7	Z7	X8	Y8	Z8	X9	Y9	Z9	X10	Y10	Z10	X11	Y11	Z11	X12	Y12	Z12	X13	Y13	Z13	X14	Y14	Z14	X15	Y15	Z15	X16	Y16	Z16	X17	Y17	Z17	X18	Y18	Z18	X19	Y19	Z19	X20	Y20	Z20	X21	Y21	Z21	X22	Y22	Z22	X23	Y23	Z23	X24	Y24	Z24	X25	Y25	Z25	X26	Y26	Z26	X27	Y27	Z27	X28	Y28	Z28	X29	Y29	Z29	X30	Y30	Z30	X31	Y31	Z31	X32	Y32	Z32	X33	Y33	Z33	X34	Y34	Z34	X35	Y35	Z35	X36	Y36	Z36	X37	Y37	Z37	X38	Y38	Z38	X39	Y39	Z39	X40	Y40	Z40	X41	Y41	Z41	X42	Y42	Z42	

38	0.370	-1002.84564	-1226.96497	1729.45703	-858.87036	-1239.00159	1701.23669	-1027.45044	-1349.63391	1648.85889	-889.25323	-1376.56152	1618.37915	-954.13989	-1409.82410	1516.35095	-939.47046	-1494.29419	1250.54297	-974.53430	-1280.20886	1433.55774	-971.79535	-1249.49988	1256.80200	-881.20026	-1481.71130	1353.61829	-1140.05811	-1349.08020	1485.21851	-1229.62097	-1389.17676	1292.43347	-1249.06104	-1413.51147	1153.87085	-1266.47827	-1412.72424	1020.65601	-1242.10364	-1366.14099	894.45239	-1271.97363	-1411.79834	898.80219	-1279.61157	-1393.46057	835.66797	-775.49243	-1314.39526	1471.35437	-689.85059	-1345.00391	1280.59192	-679.15259	-1339.77136	1133.53467	-662.44641	-1315.33362	1016.27490	-684.27283	-1270.30237	889.07922	-650.96460	-1316.82019	886.17310	-648.83679	-1278.62549	824.29315	-1092.58496	-1305.38342	964.87921	-841.34857	-1266.93079	965.89020	-986.52301	-1497.08972	1025.35022	-870.73535	-1485.09644	1030.03748	-1143.08813	-1402.56824	656.39990	-1123.96021	-1444.87268	470.33542	-1101.24133	-1591.99561	354.27341	-1062.83081	-1713.96228	170.50740	-1001.10486	-1740.28638	170.19481	-1091.06824	-1643.67114	31.84752	-767.82025	-1296.96582	665.84479	-816.35083	-1268.88293	461.16272	-810.33643	-1302.75793	274.68921	-850.46106	-1323.16772	84.06545	-906.91455	-1360.23291	30.02533	-843.05902	-1170.38428	31.72927	-917.03790	-1338.50610	1783.60217	-3357.43579	2845.88135	1033.78455			 
39	0.380	-1000.89648	-1220.03931	1730.58264	-856.97540	-1231.95776	1702.52930	-1025.27124	-1342.74146	1650.06348	-887.08484	-1369.68884	1619.51953	-951.61377	-1403.40186	1517.60522	-936.69788	-1487.11426	1251.69434	-972.33929	-1273.20410	1435.02368	-969.49060	-1242.36377	1258.22095	-878.74164	-1471.78650	1353.36047	-1137.47046	-1342.82800	1486.75220	-1227.39502	-1383.35266	1294.29431	-1247.15088	-1407.46094	1155.59021	-1265.77979	-1407.60181	1023.60303	-1241.50476	-1359.49780	896.46399	-1271.11560	-1405.15356	900.41144	-1279.78198	-1387.01965	837.95605	-773.38696	-1307.08582	1473.05640	-687.29828	-1336.28943	1282.27905	-676.77814	-1330.42822	1135.15503	-660.07263	-1304.78662	1017.97235	-682.00055	-1259.43958	890.90173	-648.50018	-1305.61682	887.95343	-646.55219	-1267.11926	826.27710	-1090.41431	-1297.98242	966.84796	-839.40289	-1259.69629	966.14191	-984.42932	-1489.81409	1026.47095	-868.55542	-1477.54883	1031.34082	-1143.36304	-1389.36523	657.56146	-1124.95630	-1428.18567	471.21655	-1102.75171	-1575.87927	356.84219	-1062.53040	-1701.01611	176.23793	-1000.57867	-1726.59790	175.67482	-1094.48083	-1631.82092	37.50080	-766.49072	-1292.95520	666.29675	-815.11621	-1266.88208	460.92294	-809.50458	-1302.13721	274.59659	-850.38654	-1323.14758	84.03030	-906.61096	-1360.33228	30.32540	-842.90106	-1170.32312	31.50674	-914.94629	-1331.45093	1784.87976	-3360.19849	2845.08398	1033.81238			 
40	0.390	-999.05096	-1213.15430	1731.79651	-855.08618	-1224.98523	1703.94336	-1023.21613	-1335.90747	1651.23987	-884.93628	-1362.56592	1620.97522	-949.19629	-1396.61792	1518.82397	-934.02960	-1480.02808	1252.81567	-970.28577	-1266.48389	1436.25684	-967.38672	-1235.40393	1259.63123	-875.79834	-1464.64832	1354.67908	-1135.09180	-1336.51257	1488.16150	-1225.21826	-1377.66907	1295.99438	-1245.63013	-1402.05762	1157.64648	-1264.48438	-1401.37854	1025.04749	-1241.12708	-1352.97815	898.44476	-1270.03577	-1398.88037	902.13550	-1279.00024	-1380.25525	839.73505	-771.38110	-1300.10193	1474.44800	-684.72516	-1327.58777	1283.82776	-674.28473	-1320.55420	1136.66187	-657.69104	-1294.37415	1019.70575	-679.88715	-1248.05164	892.96857	-646.13757	-1294.24036	889.57892	-644.33551	-1255.27039	828.14136	-1088.67517	-1290.36523	968.58484	-837.74072	-1252.96082	966.13098	-982.46643	-1482.65894	1027.43738	-866.66699	-1470.32617	1032.55139	-1143.67578	-1376.28369	658.95087	-1125.78308	-1411.55640	472.36172	-1103.96960	-1559.86157	359.52994	-1061.50439	-1687.46326	181.04678	-999.61182	-1712.35352	179.99556	-1097.04871	-1617.83374	43.23670	-765.20679	-1288.76343	666.69989	-813.81903	-1266.06750	460.98120	-808.69904	-1301.71936	274.54080	-850.26746	-1323.12744	84.03579	-906.77002	-1360.37671	30.26198	-842.49646	-1170.48022	31.29282	-913.09283	-1324.54578	1786.22168	-3357.38110	2845.75830	1033.92444			 
41	0.400	-997.36871	-1206.39441	1733.06213	-853.35242	-1218.08032	1705.32129	-1021.28876	-1329.11865	1652.43457	-882.90033	-1355.63049	1622.30225	-946.89514	-1389.80420	1520.15491	-931.51758	-1473.06641	1254.04236	-968.15527	-1259.76965	1437.59534	-965.45972	-1228.58948	1260.84424	-872.54822	-1460.10620	1357.42468	-1132.85767	-1330.41687	1489.49402	-1223.02185	-1371.93787	1297.38416	-1244.25330	-1396.76819	1159.38342	-1263.09924	-1395.55249	1026.66162	-1240.42188	-1346.40540	900.21338	-1268.99670	-1392.73901	903.74963	-1278.25916	-1373.87268	841.51538	-769.39014	-1292.64673	1475.97839	-682.44415	-1318.68542	1285.11108	-671.79810	-1310.92993	1137.98279	-655.40692	-1283.69080	1021.20966	-677.74689	-1236.78809	894.65747	-643.86084	-1282.48779	891.02478	-642.20007	-1243.19849	829.95721	-1087.17004	-1283.30737	970.32916	-835.89160	-1246.17310	966.28583	-980.76398	-1475.48401	1028.37219	-864.93945	-1463.48987	1033.68140	-1144.05200	-1363.34021	660.67688	-1126.64099	-1395.22607	473.94379	-1104.09595	-1543.87561	362.48462	-1060.52893	-1672.36121	185.01610	-998.32635	-1697.04688	182.69934	-1099.69458	-1602.36804	49.03419	-763.84656	-1284.85339	667.01355	-812.91864	-1264.13391	460.41156	-807.94067	-1301.16992	274.40585	-850.13647	-1323.31116	84.05839	-906.59320	-1360.35510	30.41094	-842.40021	-1170.20532	31.14849	-911.01910	-1317.46204	1787.08252	-3357.52588	2845.80444	1033.93030			 
